<?xml version="1.0" ?><svg id="Icons_ParentAndBaby" overflow="hidden" version="1.1" viewBox="0 0 96 96" xmlns="http://www.w3.org/2000/svg" xmlns:xlink="http://www.w3.org/1999/xlink"><g><circle cx="46.5" cy="11" r="8"/><circle cx="65.5" cy="19" r="6"/><path d=" M 53 51.8 L 53 51.8 L 53 51.8 C 52.7 51.8 52 52 51.5 52 C 47.6 52 44.5 48.9 44.5 45 C 44.5 41.8 46.6 39 49.7 38.2 C 49.9 38.1 54 36.8 55.7 29.4 C 56.2 27.3 57.6 25.6 59.5 24.7 C 57.6 23.5 55.5 22.5 53.1 21.8 C 51 21.4 48.8 21 46.5 21 C 44.3 21 42.1 21.4 39.9 22 C 36.7 22.8 33.9 24.4 31.5 26.4 C 30.9 27 30.5 27.8 30.3 28.6 L 24.7 52.4 C 24.7 52.6 24.5 53 24.5 53.4 C 24.5 55.6 26.3 57.4 28.5 57.4 C 30.3 57.4 31.9 56 32.3 54.4 L 36.5 37 L 36.5 93 L 44.5 93 L 44.5 57 L 48.5 57 L 48.5 93 L 56.5 93 L 56.5 50.5 C 54.5 51.5 53.2 51.8 53 51.8 Z"/><ellipse cx="62.2" cy="44.2" rx="4" ry="3.5" transform="matrix(0.7099,-0.7043,0.7043,0.7099,-13.0734,56.6311)"/><path d=" M 58.4 40.3 C 59.6 39.1 61.2 38.4 62.8 38.4 C 63.6 38.4 64.3 38.6 65 38.9 C 66 37 66.8 34.7 67.4 32 C 68 29.3 66.3 26.6 63.6 26 C 60.9 25.4 58.2 27.1 57.6 29.8 C 55.6 38.4 50.5 40 50.2 40.1 L 50.3 40.1 C 48.1 40.6 46.4 42.6 46.4 45 C 46.4 47.8 48.6 50 51.4 50 C 51.8 50 52.5 49.9 52.5 49.9 C 52.7 49.9 54.7 49.4 57.3 47.7 C 55.9 45.5 56.2 42.4 58.4 40.3 Z"/></g></svg>